<?xml version="1.0" standalone="no"?>
<!DOCTYPE svg PUBLIC "-//W3C//DTD SVG 20010904//EN"
 "http://www.w3.org/TR/2001/REC-SVG-20010904/DTD/svg10.dtd">
<svg version="1.0" xmlns="http://www.w3.org/2000/svg"
 width="500.000000pt" height="500.000000pt" viewBox="0 0 500.000000 500.000000"
 preserveAspectRatio="xMidYMid meet">
<metadata>
Created by potrace 1.14, written by Peter Selinger 2001-2017
</metadata>
<g transform="translate(0.000000,500.000000) scale(0.100000,-0.100000)"
fill="#000000" stroke="none">
<path d="M2484 4920 c-5 -4 -52 -29 -104 -56 -52 -27 -96 -52 -98 -56 -2 -5
-12 -8 -23 -8 -10 0 -19 -4 -19 -10 0 -5 -9 -10 -20 -10 -11 0 -20 -4 -20 -9
0 -5 -10 -13 -22 -17 -13 -4 -25 -9 -28 -13 -3 -3 -30 -18 -60 -34 -30 -15
-91 -46 -135 -70 -124 -67 -285 -153 -335 -179 -25 -12 -48 -27 -52 -33 -4 -5
-8 -6 -8 -1 0 5 -6 4 -12 -2 -7 -6 -44 -27 -83 -47 -131 -69 -150 -80 -157
-90 -4 -5 -8 -6 -8 -1 0 5 -6 4 -12 -2 -7 -5 -47 -28 -88 -50 -41 -22 -115
-61 -165 -87 -49 -26 -112 -60 -140 -75 -27 -15 -95 -51 -150 -80 -55 -29
-110 -59 -122 -67 -13 -9 -23 -12 -23 -9 0 4 -10 -2 -22 -14 l-22 -20 -1
-1365 c0 -895 3 -1369 10 -1377 6 -7 46 -31 90 -53 44 -22 82 -43 85 -46 3 -3
59 -34 125 -69 225 -118 280 -147 340 -180 156 -84 187 -101 280 -150 55 -29
123 -65 150 -80 28 -15 100 -53 160 -85 61 -32 133 -70 160 -85 28 -15 104
-56 170 -90 66 -35 122 -67 123 -72 2 -4 10 -8 18 -8 8 0 33 -12 57 -27 23
-14 48 -26 54 -26 7 0 13 -4 13 -8 0 -4 16 -13 35 -20 19 -7 35 -16 35 -20 0
-17 56 -16 81 2 15 10 34 19 43 19 9 0 16 3 16 8 0 4 58 36 128 72 70 36 129
67 132 70 4 5 43 25 190 102 25 12 47 25 50 28 3 3 39 22 80 43 41 21 82 42
90 47 8 6 26 15 40 21 14 5 43 21 65 33 22 13 74 41 115 62 41 22 77 41 80 44
3 3 37 21 75 40 39 19 72 38 75 41 3 3 20 11 38 18 17 8 32 17 32 22 0 5 6 9
14 9 8 0 50 20 94 45 44 25 83 45 87 45 4 0 20 9 36 21 16 11 29 17 29 12 0
-4 4 -3 8 2 4 6 45 31 92 55 47 24 88 48 92 54 4 6 8 8 8 4 0 -4 21 5 48 20
26 16 68 38 93 50 31 15 48 30 50 45 3 12 4 630 4 1374 -1 1390 -1 1383 -37
1383 -6 0 -23 9 -39 21 -16 11 -29 17 -29 14 0 -3 -12 2 -27 13 -16 10 -50 30
-78 44 -59 29 -313 164 -430 228 -55 30 -156 84 -280 150 -44 23 -109 58 -145
78 -36 19 -94 50 -130 70 -36 19 -71 39 -77 44 -7 6 -13 7 -13 4 0 -4 -12 1
-27 11 -16 11 -57 34 -93 53 -36 18 -87 45 -115 60 -104 56 -202 109 -265 141
-36 19 -68 39 -72 44 -4 6 -8 7 -8 3 0 -3 -20 4 -44 17 -24 13 -48 20 -52 15z
m148 -801 c55 -28 105 -81 131 -138 27 -57 28 -167 4 -224 -38 -88 -125 -161
-206 -173 -20 -3 -41 -7 -47 -8 -21 -7 -115 15 -152 36 -168 96 -200 318 -66
454 49 49 73 61 154 79 64 13 120 5 182 -26z m146 -663 c7 -4 21 -9 33 -11 62
-12 143 -85 170 -152 13 -30 22 -352 11 -354 -21 -3 -960 -4 -973 -1 -15 3
-17 22 -15 165 2 147 4 167 25 210 20 41 88 111 110 112 3 1 16 6 28 13 13 7
42 15 65 18 24 4 44 7 45 8 7 6 491 -1 501 -8z m-809 -853 c127 -61 190 -224
139 -361 -49 -130 -202 -213 -330 -179 -167 46 -255 195 -215 364 39 162 246
252 406 176z m1294 10 c26 -9 47 -21 47 -25 0 -4 5 -8 11 -8 28 0 97 -93 114
-155 20 -72 7 -174 -31 -233 -62 -99 -198 -156 -304 -130 -183 46 -277 232
-202 400 30 68 98 131 167 156 47 16 145 14 198 -5z m-1167 -676 c4 -4 18 -7
31 -7 32 0 111 -44 146 -81 50 -52 65 -114 66 -281 1 -81 -2 -149 -6 -149 -5
-1 -227 -2 -496 -3 -425 -1 -488 1 -492 14 -9 33 2 319 13 333 7 8 9 17 6 20
-4 4 10 27 30 51 40 49 116 92 181 102 22 3 41 7 42 8 6 6 473 -1 479 -7z
m1324 0 c8 -4 26 -8 40 -11 65 -12 141 -72 177 -141 20 -39 29 -364 10 -366
-7 -1 -231 -2 -499 -3 l-487 -1 0 145 c0 164 13 227 60 283 32 39 113 83 169
92 19 3 35 7 37 8 5 6 480 -1 493 -6z"/>
</g>
</svg>
